<svg xmlns="http://www.w3.org/2000/svg" width="1400" height="8"><defs><clipPath id="a"><path fill="none" d="M0 0h1400v8H0z"/></clipPath><clipPath id="b"><path data-name="長方形 9" fill="#8ddbef" d="M0 0h33v8H0z"/></clipPath></defs><g clip-path="url(#a)"><g data-name="haeder-topline"><path data-name="長方形 1" fill="#d8d8d8" d="M0 0h33v8H0z"/><g data-name="マスクグループ 3" clip-path="url(#b)"><g data-name="グループ 2" fill="none" stroke="#efefef" stroke-width="4"><path data-name="線 14" d="M61.653-2.633 9 50.02"/><path data-name="線 16" d="M11.653-2.633-41 50.02"/><path data-name="線 17" d="M28.653-2.633-24 50.02"/><path data-name="線 18" d="M44.653-2.633-8 50.02"/><path data-name="線 19" d="M77.653-2.633 25 50.02"/><path data-name="線 20" d="M94.653-2.633 42 50.02"/></g></g></g><g data-name="haeder-topline"><path data-name="長方形 1" fill="#d8d8d8" d="M33 0h33v8H33z"/><g data-name="マスクグループ 3" clip-path="url(#b)" transform="translate(33)"><g data-name="グループ 2" fill="none" stroke="#efefef" stroke-width="4"><path data-name="線 14" d="M61.653-2.633 9 50.02"/><path data-name="線 16" d="M11.653-2.633-41 50.02"/><path data-name="線 17" d="M28.653-2.633-24 50.02"/><path data-name="線 18" d="M44.653-2.633-8 50.02"/><path data-name="線 19" d="M77.653-2.633 25 50.02"/><path data-name="線 20" d="M94.653-2.633 42 50.02"/></g></g></g><g data-name="haeder-topline"><path data-name="長方形 1" fill="#d8d8d8" d="M66 0h33v8H66z"/><g data-name="マスクグループ 3" clip-path="url(#b)" transform="translate(66)"><g data-name="グループ 2" fill="none" stroke="#efefef" stroke-width="4"><path data-name="線 14" d="M61.653-2.633 9 50.02"/><path data-name="線 16" d="M11.653-2.633-41 50.02"/><path data-name="線 17" d="M28.653-2.633-24 50.02"/><path data-name="線 18" d="M44.653-2.633-8 50.02"/><path data-name="線 19" d="M77.653-2.633 25 50.02"/><path data-name="線 20" d="M94.653-2.633 42 50.02"/></g></g></g><g data-name="haeder-topline"><path data-name="長方形 1" fill="#d8d8d8" d="M99 0h33v8H99z"/><g data-name="マスクグループ 3" clip-path="url(#b)" transform="translate(99)"><g data-name="グループ 2" fill="none" stroke="#efefef" stroke-width="4"><path data-name="線 14" d="M61.653-2.633 9 50.02"/><path data-name="線 16" d="M11.653-2.633-41 50.02"/><path data-name="線 17" d="M28.653-2.633-24 50.02"/><path data-name="線 18" d="M44.653-2.633-8 50.02"/><path data-name="線 19" d="M77.653-2.633 25 50.02"/><path data-name="線 20" d="M94.653-2.633 42 50.02"/></g></g></g><g data-name="haeder-topline"><path data-name="長方形 1" fill="#d8d8d8" d="M132 0h33v8h-33z"/><g data-name="マスクグループ 3" clip-path="url(#b)" transform="translate(132)"><g data-name="グループ 2" fill="none" stroke="#efefef" stroke-width="4"><path data-name="線 14" d="M61.653-2.633 9 50.02"/><path data-name="線 16" d="M11.653-2.633-41 50.02"/><path data-name="線 17" d="M28.653-2.633-24 50.02"/><path data-name="線 18" d="M44.653-2.633-8 50.02"/><path data-name="線 19" d="M77.653-2.633 25 50.02"/><path data-name="線 20" d="M94.653-2.633 42 50.02"/></g></g></g><g data-name="haeder-topline"><path data-name="長方形 1" fill="#d8d8d8" d="M165 0h33v8h-33z"/><g data-name="マスクグループ 3" clip-path="url(#b)" transform="translate(165)"><g data-name="グループ 2" fill="none" stroke="#efefef" stroke-width="4"><path data-name="線 14" d="M61.653-2.633 9 50.02"/><path data-name="線 16" d="M11.653-2.633-41 50.02"/><path data-name="線 17" d="M28.653-2.633-24 50.02"/><path data-name="線 18" d="M44.653-2.633-8 50.02"/><path data-name="線 19" d="M77.653-2.633 25 50.02"/><path data-name="線 20" d="M94.653-2.633 42 50.02"/></g></g></g><g data-name="haeder-topline"><path data-name="長方形 1" fill="#d8d8d8" d="M198 0h33v8h-33z"/><g data-name="マスクグループ 3" clip-path="url(#b)" transform="translate(198)"><g data-name="グループ 2" fill="none" stroke="#efefef" stroke-width="4"><path data-name="線 14" d="M61.653-2.633 9 50.02"/><path data-name="線 16" d="M11.653-2.633-41 50.02"/><path data-name="線 17" d="M28.653-2.633-24 50.02"/><path data-name="線 18" d="M44.653-2.633-8 50.02"/><path data-name="線 19" d="M77.653-2.633 25 50.02"/><path data-name="線 20" d="M94.653-2.633 42 50.02"/></g></g></g><g data-name="haeder-topline"><path data-name="長方形 1" fill="#d8d8d8" d="M231 0h33v8h-33z"/><g data-name="マスクグループ 3" clip-path="url(#b)" transform="translate(231)"><g data-name="グループ 2" fill="none" stroke="#efefef" stroke-width="4"><path data-name="線 14" d="M61.653-2.633 9 50.02"/><path data-name="線 16" d="M11.653-2.633-41 50.02"/><path data-name="線 17" d="M28.653-2.633-24 50.02"/><path data-name="線 18" d="M44.653-2.633-8 50.02"/><path data-name="線 19" d="M77.653-2.633 25 50.02"/><path data-name="線 20" d="M94.653-2.633 42 50.02"/></g></g></g><g data-name="haeder-topline"><path data-name="長方形 1" fill="#d8d8d8" d="M264 0h33v8h-33z"/><g data-name="マスクグループ 3" clip-path="url(#b)" transform="translate(264)"><g data-name="グループ 2" fill="none" stroke="#efefef" stroke-width="4"><path data-name="線 14" d="M61.653-2.633 9 50.02"/><path data-name="線 16" d="M11.653-2.633-41 50.02"/><path data-name="線 17" d="M28.653-2.633-24 50.02"/><path data-name="線 18" d="M44.653-2.633-8 50.02"/><path data-name="線 19" d="M77.653-2.633 25 50.02"/><path data-name="線 20" d="M94.653-2.633 42 50.02"/></g></g></g><g data-name="haeder-topline"><path data-name="長方形 1" fill="#d8d8d8" d="M297 0h33v8h-33z"/><g data-name="マスクグループ 3" clip-path="url(#b)" transform="translate(297)"><g data-name="グループ 2" fill="none" stroke="#efefef" stroke-width="4"><path data-name="線 14" d="M61.653-2.633 9 50.02"/><path data-name="線 16" d="M11.653-2.633-41 50.02"/><path data-name="線 17" d="M28.653-2.633-24 50.02"/><path data-name="線 18" d="M44.653-2.633-8 50.02"/><path data-name="線 19" d="M77.653-2.633 25 50.02"/><path data-name="線 20" d="M94.653-2.633 42 50.02"/></g></g></g><g data-name="haeder-topline"><path data-name="長方形 1" fill="#d8d8d8" d="M330 0h33v8h-33z"/><g data-name="マスクグループ 3" clip-path="url(#b)" transform="translate(330)"><g data-name="グループ 2" fill="none" stroke="#efefef" stroke-width="4"><path data-name="線 14" d="M61.653-2.633 9 50.02"/><path data-name="線 16" d="M11.653-2.633-41 50.02"/><path data-name="線 17" d="M28.653-2.633-24 50.02"/><path data-name="線 18" d="M44.653-2.633-8 50.02"/><path data-name="線 19" d="M77.653-2.633 25 50.02"/><path data-name="線 20" d="M94.653-2.633 42 50.02"/></g></g></g><g data-name="haeder-topline"><path data-name="長方形 1" fill="#d8d8d8" d="M363 0h33v8h-33z"/><g data-name="マスクグループ 3" clip-path="url(#b)" transform="translate(363)"><g data-name="グループ 2" fill="none" stroke="#efefef" stroke-width="4"><path data-name="線 14" d="M61.653-2.633 9 50.02"/><path data-name="線 16" d="M11.653-2.633-41 50.02"/><path data-name="線 17" d="M28.653-2.633-24 50.02"/><path data-name="線 18" d="M44.653-2.633-8 50.02"/><path data-name="線 19" d="M77.653-2.633 25 50.02"/><path data-name="線 20" d="M94.653-2.633 42 50.02"/></g></g></g><g data-name="haeder-topline"><path data-name="長方形 1" fill="#d8d8d8" d="M396 0h33v8h-33z"/><g data-name="マスクグループ 3" clip-path="url(#b)" transform="translate(396)"><g data-name="グループ 2" fill="none" stroke="#efefef" stroke-width="4"><path data-name="線 14" d="M61.653-2.633 9 50.02"/><path data-name="線 16" d="M11.653-2.633-41 50.02"/><path data-name="線 17" d="M28.653-2.633-24 50.02"/><path data-name="線 18" d="M44.653-2.633-8 50.02"/><path data-name="線 19" d="M77.653-2.633 25 50.02"/><path data-name="線 20" d="M94.653-2.633 42 50.02"/></g></g></g><g data-name="haeder-topline"><path data-name="長方形 1" fill="#d8d8d8" d="M429 0h33v8h-33z"/><g data-name="マスクグループ 3" clip-path="url(#b)" transform="translate(429)"><g data-name="グループ 2" fill="none" stroke="#efefef" stroke-width="4"><path data-name="線 14" d="M61.653-2.633 9 50.02"/><path data-name="線 16" d="M11.653-2.633-41 50.02"/><path data-name="線 17" d="M28.653-2.633-24 50.02"/><path data-name="線 18" d="M44.653-2.633-8 50.02"/><path data-name="線 19" d="M77.653-2.633 25 50.02"/><path data-name="線 20" d="M94.653-2.633 42 50.02"/></g></g></g><g data-name="haeder-topline"><path data-name="長方形 1" fill="#d8d8d8" d="M462 0h33v8h-33z"/><g data-name="マスクグループ 3" clip-path="url(#b)" transform="translate(462)"><g data-name="グループ 2" fill="none" stroke="#efefef" stroke-width="4"><path data-name="線 14" d="M61.653-2.633 9 50.02"/><path data-name="線 16" d="M11.653-2.633-41 50.02"/><path data-name="線 17" d="M28.653-2.633-24 50.02"/><path data-name="線 18" d="M44.653-2.633-8 50.02"/><path data-name="線 19" d="M77.653-2.633 25 50.02"/><path data-name="線 20" d="M94.653-2.633 42 50.02"/></g></g></g><g data-name="haeder-topline"><path data-name="長方形 1" fill="#d8d8d8" d="M495 0h33v8h-33z"/><g data-name="マスクグループ 3" clip-path="url(#b)" transform="translate(495)"><g data-name="グループ 2" fill="none" stroke="#efefef" stroke-width="4"><path data-name="線 14" d="M61.653-2.633 9 50.02"/><path data-name="線 16" d="M11.653-2.633-41 50.02"/><path data-name="線 17" d="M28.653-2.633-24 50.02"/><path data-name="線 18" d="M44.653-2.633-8 50.02"/><path data-name="線 19" d="M77.653-2.633 25 50.02"/><path data-name="線 20" d="M94.653-2.633 42 50.02"/></g></g></g><g data-name="haeder-topline"><path data-name="長方形 1" fill="#d8d8d8" d="M528 0h33v8h-33z"/><g data-name="マスクグループ 3" clip-path="url(#b)" transform="translate(528)"><g data-name="グループ 2" fill="none" stroke="#efefef" stroke-width="4"><path data-name="線 14" d="M61.653-2.633 9 50.02"/><path data-name="線 16" d="M11.653-2.633-41 50.02"/><path data-name="線 17" d="M28.653-2.633-24 50.02"/><path data-name="線 18" d="M44.653-2.633-8 50.02"/><path data-name="線 19" d="M77.653-2.633 25 50.02"/><path data-name="線 20" d="M94.653-2.633 42 50.02"/></g></g></g><g data-name="haeder-topline"><path data-name="長方形 1" fill="#d8d8d8" d="M561 0h33v8h-33z"/><g data-name="マスクグループ 3" clip-path="url(#b)" transform="translate(561)"><g data-name="グループ 2" fill="none" stroke="#efefef" stroke-width="4"><path data-name="線 14" d="M61.653-2.633 9 50.02"/><path data-name="線 16" d="M11.653-2.633-41 50.02"/><path data-name="線 17" d="M28.653-2.633-24 50.02"/><path data-name="線 18" d="M44.653-2.633-8 50.02"/><path data-name="線 19" d="M77.653-2.633 25 50.02"/><path data-name="線 20" d="M94.653-2.633 42 50.02"/></g></g></g><g data-name="haeder-topline"><path data-name="長方形 1" fill="#d8d8d8" d="M594 0h33v8h-33z"/><g data-name="マスクグループ 3" clip-path="url(#b)" transform="translate(594)"><g data-name="グループ 2" fill="none" stroke="#efefef" stroke-width="4"><path data-name="線 14" d="M61.653-2.633 9 50.02"/><path data-name="線 16" d="M11.653-2.633-41 50.02"/><path data-name="線 17" d="M28.653-2.633-24 50.02"/><path data-name="線 18" d="M44.653-2.633-8 50.02"/><path data-name="線 19" d="M77.653-2.633 25 50.02"/><path data-name="線 20" d="M94.653-2.633 42 50.02"/></g></g></g><g data-name="haeder-topline"><path data-name="長方形 1" fill="#d8d8d8" d="M627 0h33v8h-33z"/><g data-name="マスクグループ 3" clip-path="url(#b)" transform="translate(627)"><g data-name="グループ 2" fill="none" stroke="#efefef" stroke-width="4"><path data-name="線 14" d="M61.653-2.633 9 50.02"/><path data-name="線 16" d="M11.653-2.633-41 50.02"/><path data-name="線 17" d="M28.653-2.633-24 50.02"/><path data-name="線 18" d="M44.653-2.633-8 50.02"/><path data-name="線 19" d="M77.653-2.633 25 50.02"/><path data-name="線 20" d="M94.653-2.633 42 50.02"/></g></g></g><g data-name="haeder-topline"><path data-name="長方形 1" fill="#d8d8d8" d="M660 0h33v8h-33z"/><g data-name="マスクグループ 3" clip-path="url(#b)" transform="translate(660)"><g data-name="グループ 2" fill="none" stroke="#efefef" stroke-width="4"><path data-name="線 14" d="M61.653-2.633 9 50.02"/><path data-name="線 16" d="M11.653-2.633-41 50.02"/><path data-name="線 17" d="M28.653-2.633-24 50.02"/><path data-name="線 18" d="M44.653-2.633-8 50.02"/><path data-name="線 19" d="M77.653-2.633 25 50.02"/><path data-name="線 20" d="M94.653-2.633 42 50.02"/></g></g></g><g data-name="haeder-topline"><path data-name="長方形 1" fill="#d8d8d8" d="M693 0h33v8h-33z"/><g data-name="マスクグループ 3" clip-path="url(#b)" transform="translate(693)"><g data-name="グループ 2" fill="none" stroke="#efefef" stroke-width="4"><path data-name="線 14" d="M61.653-2.633 9 50.02"/><path data-name="線 16" d="M11.653-2.633-41 50.02"/><path data-name="線 17" d="M28.653-2.633-24 50.02"/><path data-name="線 18" d="M44.653-2.633-8 50.02"/><path data-name="線 19" d="M77.653-2.633 25 50.02"/><path data-name="線 20" d="M94.653-2.633 42 50.02"/></g></g></g><g data-name="haeder-topline"><path data-name="長方形 1" fill="#d8d8d8" d="M726 0h33v8h-33z"/><g data-name="マスクグループ 3" clip-path="url(#b)" transform="translate(726)"><g data-name="グループ 2" fill="none" stroke="#efefef" stroke-width="4"><path data-name="線 14" d="M61.653-2.633 9 50.02"/><path data-name="線 16" d="M11.653-2.633-41 50.02"/><path data-name="線 17" d="M28.653-2.633-24 50.02"/><path data-name="線 18" d="M44.653-2.633-8 50.02"/><path data-name="線 19" d="M77.653-2.633 25 50.02"/><path data-name="線 20" d="M94.653-2.633 42 50.02"/></g></g></g><g data-name="haeder-topline"><path data-name="長方形 1" fill="#d8d8d8" d="M759 0h33v8h-33z"/><g data-name="マスクグループ 3" clip-path="url(#b)" transform="translate(759)"><g data-name="グループ 2" fill="none" stroke="#efefef" stroke-width="4"><path data-name="線 14" d="M61.653-2.633 9 50.02"/><path data-name="線 16" d="M11.653-2.633-41 50.02"/><path data-name="線 17" d="M28.653-2.633-24 50.02"/><path data-name="線 18" d="M44.653-2.633-8 50.02"/><path data-name="線 19" d="M77.653-2.633 25 50.02"/><path data-name="線 20" d="M94.653-2.633 42 50.02"/></g></g></g><g data-name="haeder-topline"><path data-name="長方形 1" fill="#d8d8d8" d="M792 0h33v8h-33z"/><g data-name="マスクグループ 3" clip-path="url(#b)" transform="translate(792)"><g data-name="グループ 2" fill="none" stroke="#efefef" stroke-width="4"><path data-name="線 14" d="M61.653-2.633 9 50.02"/><path data-name="線 16" d="M11.653-2.633-41 50.02"/><path data-name="線 17" d="M28.653-2.633-24 50.02"/><path data-name="線 18" d="M44.653-2.633-8 50.02"/><path data-name="線 19" d="M77.653-2.633 25 50.02"/><path data-name="線 20" d="M94.653-2.633 42 50.02"/></g></g></g><g data-name="haeder-topline"><path data-name="長方形 1" fill="#d8d8d8" d="M825 0h33v8h-33z"/><g data-name="マスクグループ 3" clip-path="url(#b)" transform="translate(825)"><g data-name="グループ 2" fill="none" stroke="#efefef" stroke-width="4"><path data-name="線 14" d="M61.653-2.633 9 50.02"/><path data-name="線 16" d="M11.653-2.633-41 50.02"/><path data-name="線 17" d="M28.653-2.633-24 50.02"/><path data-name="線 18" d="M44.653-2.633-8 50.02"/><path data-name="線 19" d="M77.653-2.633 25 50.02"/><path data-name="線 20" d="M94.653-2.633 42 50.02"/></g></g></g><g data-name="haeder-topline"><path data-name="長方形 1" fill="#d8d8d8" d="M858 0h33v8h-33z"/><g data-name="マスクグループ 3" clip-path="url(#b)" transform="translate(858)"><g data-name="グループ 2" fill="none" stroke="#efefef" stroke-width="4"><path data-name="線 14" d="M61.653-2.633 9 50.02"/><path data-name="線 16" d="M11.653-2.633-41 50.02"/><path data-name="線 17" d="M28.653-2.633-24 50.02"/><path data-name="線 18" d="M44.653-2.633-8 50.02"/><path data-name="線 19" d="M77.653-2.633 25 50.02"/><path data-name="線 20" d="M94.653-2.633 42 50.02"/></g></g></g><g data-name="haeder-topline"><path data-name="長方形 1" fill="#d8d8d8" d="M891 0h33v8h-33z"/><g data-name="マスクグループ 3" clip-path="url(#b)" transform="translate(891)"><g data-name="グループ 2" fill="none" stroke="#efefef" stroke-width="4"><path data-name="線 14" d="M61.653-2.633 9 50.02"/><path data-name="線 16" d="M11.653-2.633-41 50.02"/><path data-name="線 17" d="M28.653-2.633-24 50.02"/><path data-name="線 18" d="M44.653-2.633-8 50.02"/><path data-name="線 19" d="M77.653-2.633 25 50.02"/><path data-name="線 20" d="M94.653-2.633 42 50.02"/></g></g></g><g data-name="haeder-topline"><path data-name="長方形 1" fill="#d8d8d8" d="M924 0h33v8h-33z"/><g data-name="マスクグループ 3" clip-path="url(#b)" transform="translate(924)"><g data-name="グループ 2" fill="none" stroke="#efefef" stroke-width="4"><path data-name="線 14" d="M61.653-2.633 9 50.02"/><path data-name="線 16" d="M11.653-2.633-41 50.02"/><path data-name="線 17" d="M28.653-2.633-24 50.02"/><path data-name="線 18" d="M44.653-2.633-8 50.02"/><path data-name="線 19" d="M77.653-2.633 25 50.02"/><path data-name="線 20" d="M94.653-2.633 42 50.02"/></g></g></g><g data-name="haeder-topline"><path data-name="長方形 1" fill="#d8d8d8" d="M957 0h33v8h-33z"/><g data-name="マスクグループ 3" clip-path="url(#b)" transform="translate(957)"><g data-name="グループ 2" fill="none" stroke="#efefef" stroke-width="4"><path data-name="線 14" d="M61.653-2.633 9 50.02"/><path data-name="線 16" d="M11.653-2.633-41 50.02"/><path data-name="線 17" d="M28.653-2.633-24 50.02"/><path data-name="線 18" d="M44.653-2.633-8 50.02"/><path data-name="線 19" d="M77.653-2.633 25 50.02"/><path data-name="線 20" d="M94.653-2.633 42 50.02"/></g></g></g><g data-name="haeder-topline"><path data-name="長方形 1" fill="#d8d8d8" d="M990 0h33v8h-33z"/><g data-name="マスクグループ 3" clip-path="url(#b)" transform="translate(990)"><g data-name="グループ 2" fill="none" stroke="#efefef" stroke-width="4"><path data-name="線 14" d="M61.653-2.633 9 50.02"/><path data-name="線 16" d="M11.653-2.633-41 50.02"/><path data-name="線 17" d="M28.653-2.633-24 50.02"/><path data-name="線 18" d="M44.653-2.633-8 50.02"/><path data-name="線 19" d="M77.653-2.633 25 50.02"/><path data-name="線 20" d="M94.653-2.633 42 50.02"/></g></g></g><g data-name="haeder-topline"><path data-name="長方形 1" fill="#d8d8d8" d="M1023 0h33v8h-33z"/><g data-name="マスクグループ 3" clip-path="url(#b)" transform="translate(1023)"><g data-name="グループ 2" fill="none" stroke="#efefef" stroke-width="4"><path data-name="線 14" d="M61.653-2.633 9 50.02"/><path data-name="線 16" d="M11.653-2.633-41 50.02"/><path data-name="線 17" d="M28.653-2.633-24 50.02"/><path data-name="線 18" d="M44.653-2.633-8 50.02"/><path data-name="線 19" d="M77.653-2.633 25 50.02"/><path data-name="線 20" d="M94.653-2.633 42 50.02"/></g></g></g><g data-name="haeder-topline"><path data-name="長方形 1" fill="#d8d8d8" d="M1056 0h33v8h-33z"/><g data-name="マスクグループ 3" clip-path="url(#b)" transform="translate(1056)"><g data-name="グループ 2" fill="none" stroke="#efefef" stroke-width="4"><path data-name="線 14" d="M61.653-2.633 9 50.02"/><path data-name="線 16" d="M11.653-2.633-41 50.02"/><path data-name="線 17" d="M28.653-2.633-24 50.02"/><path data-name="線 18" d="M44.653-2.633-8 50.02"/><path data-name="線 19" d="M77.653-2.633 25 50.02"/><path data-name="線 20" d="M94.653-2.633 42 50.02"/></g></g></g><g data-name="haeder-topline"><path data-name="長方形 1" fill="#d8d8d8" d="M1089 0h33v8h-33z"/><g data-name="マスクグループ 3" clip-path="url(#b)" transform="translate(1089)"><g data-name="グループ 2" fill="none" stroke="#efefef" stroke-width="4"><path data-name="線 14" d="M61.653-2.633 9 50.02"/><path data-name="線 16" d="M11.653-2.633-41 50.02"/><path data-name="線 17" d="M28.653-2.633-24 50.02"/><path data-name="線 18" d="M44.653-2.633-8 50.02"/><path data-name="線 19" d="M77.653-2.633 25 50.02"/><path data-name="線 20" d="M94.653-2.633 42 50.02"/></g></g></g><g data-name="haeder-topline"><path data-name="長方形 1" fill="#d8d8d8" d="M1122 0h33v8h-33z"/><g data-name="マスクグループ 3" clip-path="url(#b)" transform="translate(1122)"><g data-name="グループ 2" fill="none" stroke="#efefef" stroke-width="4"><path data-name="線 14" d="M61.653-2.633 9 50.02"/><path data-name="線 16" d="M11.653-2.633-41 50.02"/><path data-name="線 17" d="M28.653-2.633-24 50.02"/><path data-name="線 18" d="M44.653-2.633-8 50.02"/><path data-name="線 19" d="M77.653-2.633 25 50.02"/><path data-name="線 20" d="M94.653-2.633 42 50.02"/></g></g></g><g data-name="haeder-topline"><path data-name="長方形 1" fill="#d8d8d8" d="M1155 0h33v8h-33z"/><g data-name="マスクグループ 3" clip-path="url(#b)" transform="translate(1155)"><g data-name="グループ 2" fill="none" stroke="#efefef" stroke-width="4"><path data-name="線 14" d="M61.653-2.633 9 50.02"/><path data-name="線 16" d="M11.653-2.633-41 50.02"/><path data-name="線 17" d="M28.653-2.633-24 50.02"/><path data-name="線 18" d="M44.653-2.633-8 50.02"/><path data-name="線 19" d="M77.653-2.633 25 50.02"/><path data-name="線 20" d="M94.653-2.633 42 50.02"/></g></g></g><g data-name="haeder-topline"><path data-name="長方形 1" fill="#d8d8d8" d="M1188 0h33v8h-33z"/><g data-name="マスクグループ 3" clip-path="url(#b)" transform="translate(1188)"><g data-name="グループ 2" fill="none" stroke="#efefef" stroke-width="4"><path data-name="線 14" d="M61.653-2.633 9 50.02"/><path data-name="線 16" d="M11.653-2.633-41 50.02"/><path data-name="線 17" d="M28.653-2.633-24 50.02"/><path data-name="線 18" d="M44.653-2.633-8 50.02"/><path data-name="線 19" d="M77.653-2.633 25 50.02"/><path data-name="線 20" d="M94.653-2.633 42 50.02"/></g></g></g><g data-name="haeder-topline"><path data-name="長方形 1" fill="#d8d8d8" d="M1221 0h33v8h-33z"/><g data-name="マスクグループ 3" clip-path="url(#b)" transform="translate(1221)"><g data-name="グループ 2" fill="none" stroke="#efefef" stroke-width="4"><path data-name="線 14" d="M61.653-2.633 9 50.02"/><path data-name="線 16" d="M11.653-2.633-41 50.02"/><path data-name="線 17" d="M28.653-2.633-24 50.02"/><path data-name="線 18" d="M44.653-2.633-8 50.02"/><path data-name="線 19" d="M77.653-2.633 25 50.02"/><path data-name="線 20" d="M94.653-2.633 42 50.02"/></g></g></g><g data-name="haeder-topline"><path data-name="長方形 1" fill="#d8d8d8" d="M1254 0h33v8h-33z"/><g data-name="マスクグループ 3" clip-path="url(#b)" transform="translate(1254)"><g data-name="グループ 2" fill="none" stroke="#efefef" stroke-width="4"><path data-name="線 14" d="M61.653-2.633 9 50.02"/><path data-name="線 16" d="M11.653-2.633-41 50.02"/><path data-name="線 17" d="M28.653-2.633-24 50.02"/><path data-name="線 18" d="M44.653-2.633-8 50.02"/><path data-name="線 19" d="M77.653-2.633 25 50.02"/><path data-name="線 20" d="M94.653-2.633 42 50.02"/></g></g></g><g data-name="haeder-topline"><path data-name="長方形 1" fill="#d8d8d8" d="M1287 0h33v8h-33z"/><g data-name="マスクグループ 3" clip-path="url(#b)" transform="translate(1287)"><g data-name="グループ 2" fill="none" stroke="#efefef" stroke-width="4"><path data-name="線 14" d="M61.653-2.633 9 50.02"/><path data-name="線 16" d="M11.653-2.633-41 50.02"/><path data-name="線 17" d="M28.653-2.633-24 50.02"/><path data-name="線 18" d="M44.653-2.633-8 50.02"/><path data-name="線 19" d="M77.653-2.633 25 50.02"/><path data-name="線 20" d="M94.653-2.633 42 50.02"/></g></g></g><g data-name="haeder-topline"><path data-name="長方形 1" fill="#d8d8d8" d="M1320 0h33v8h-33z"/><g data-name="マスクグループ 3" clip-path="url(#b)" transform="translate(1320)"><g data-name="グループ 2" fill="none" stroke="#efefef" stroke-width="4"><path data-name="線 14" d="M61.653-2.633 9 50.02"/><path data-name="線 16" d="M11.653-2.633-41 50.02"/><path data-name="線 17" d="M28.653-2.633-24 50.02"/><path data-name="線 18" d="M44.653-2.633-8 50.02"/><path data-name="線 19" d="M77.653-2.633 25 50.02"/><path data-name="線 20" d="M94.653-2.633 42 50.02"/></g></g></g><g data-name="haeder-topline"><path data-name="長方形 1" fill="#d8d8d8" d="M1353 0h33v8h-33z"/><g data-name="マスクグループ 3" clip-path="url(#b)" transform="translate(1353)"><g data-name="グループ 2" fill="none" stroke="#efefef" stroke-width="4"><path data-name="線 14" d="M61.653-2.633 9 50.02"/><path data-name="線 16" d="M11.653-2.633-41 50.02"/><path data-name="線 17" d="M28.653-2.633-24 50.02"/><path data-name="線 18" d="M44.653-2.633-8 50.02"/><path data-name="線 19" d="M77.653-2.633 25 50.02"/><path data-name="線 20" d="M94.653-2.633 42 50.02"/></g></g></g><g data-name="haeder-topline"><path data-name="長方形 1" fill="#d8d8d8" d="M1386 0h33v8h-33z"/><g data-name="マスクグループ 3" clip-path="url(#b)" transform="translate(1386)"><g data-name="グループ 2" fill="none" stroke="#efefef" stroke-width="4"><path data-name="線 14" d="M61.653-2.633 9 50.02"/><path data-name="線 16" d="M11.653-2.633-41 50.02"/><path data-name="線 17" d="M28.653-2.633-24 50.02"/><path data-name="線 18" d="M44.653-2.633-8 50.02"/><path data-name="線 19" d="M77.653-2.633 25 50.02"/><path data-name="線 20" d="M94.653-2.633 42 50.02"/></g></g></g></g></svg>