<svg xmlns="http://www.w3.org/2000/svg" width="130" height="130"><path data-name="パス 71" d="M130 65c0 5.484-8.094 9.831-9.446 14.889-1.4 5.233 3.4 13.036.745 17.618-2.689 4.647-11.869 4.379-15.641 8.151s-3.5 12.952-8.151 15.641c-4.582 2.651-12.385-2.143-17.618-.745C74.832 121.906 70.484 130 65 130s-9.831-8.094-14.889-9.446c-5.233-1.4-13.036 3.4-17.618.745-4.647-2.689-4.379-11.869-8.151-15.641s-12.952-3.5-15.641-8.151c-2.651-4.582 2.143-12.385.745-17.618C8.094 74.831 0 70.484 0 65s8.094-9.831 9.446-14.889c1.4-5.233-3.4-13.036-.745-17.618 2.689-4.648 11.869-4.379 15.641-8.151s3.5-12.952 8.151-15.641c4.582-2.651 12.385 2.143 17.618.745C55.169 8.094 59.516 0 65 0s9.831 8.094 14.889 9.446c5.233 1.4 13.036-3.4 17.618-.745 4.648 2.689 4.379 11.869 8.151 15.641s12.952 3.5 15.641 8.151c2.651 4.582-2.143 12.385-.745 17.618C121.906 55.169 130 59.516 130 65Z"/></svg>