<svg xmlns="http://www.w3.org/2000/svg" width="620" height="270"><path data-name="長方形 148" fill="none" d="M0 0h620v270H0z"/><path data-name="パス 73" d="M249.114 54.585 176.4 91.142 285.671 127.3Z" fill="#f1f1f1"/><path data-name="パス 74" d="m520.926 121.411-8.7 80.919 89.619-72.219Z" fill="#f1f1f1"/><path data-name="パス 75" d="m34.959 20-8.442 3.087-1.355 2.919 12.716-4.651Z" fill="#f1f1f1"/><path data-name="パス 76" d="m42.7 23.594-19.777 7.233-1.355 2.919 24.051-8.8Z" fill="#f1f1f1"/><path data-name="パス 77" d="M50.439 27.189 19.328 38.567l-1.355 2.919 35.385-12.941Z" fill="#f1f1f1"/><path data-name="パス 78" d="M58.179 30.784 15.733 46.308l-1.355 2.919L61.1 32.14Z" fill="#f1f1f1"/><path data-name="パス 79" d="m65.919 34.378-53.78 19.669-1.355 2.919 58.055-21.232Z" fill="#f1f1f1"/><path data-name="パス 80" d="M73.659 37.973 8.544 61.788l-1.355 2.919 69.389-25.378Z" fill="#f1f1f1"/><path data-name="パス 81" d="M81.4 41.568 4.95 69.528l-1.355 2.919 80.724-29.523Z" fill="#f1f1f1"/><path data-name="パス 82" d="M89.139 45.162 1.355 77.267 0 80.186l92.059-33.668Z" fill="#f1f1f1"/><path data-name="パス 83" d="m201.113 227.391 5.416 8.837 3.608.866-8.158-13.312Z" fill="#f1f1f1"/><path data-name="パス 84" d="m203.41 217.822 12.688 20.7 3.608.866-15.43-25.178Z" fill="#f1f1f1"/><path data-name="パス 85" d="m205.707 208.253 19.958 32.57 3.608.866-22.7-37.044Z" fill="#f1f1f1"/><path data-name="パス 86" d="m208 198.685 27.23 44.434 3.608.866-29.973-48.908Z" fill="#f1f1f1"/><path data-name="パス 87" d="m210.3 189.116 34.5 56.3 3.608.866-37.245-60.771Z" fill="#f1f1f1"/><path data-name="パス 88" d="m212.6 179.547 41.774 68.166 3.608.866-44.517-72.641Z" fill="#f1f1f1"/><path data-name="パス 89" d="m214.9 169.978 49.046 80.031 3.608.866-51.783-84.5Z" fill="#f1f1f1"/><path data-name="パス 90" d="m217.192 160.406 56.318 91.9 3.608.866-59.061-96.372Z" fill="#f1f1f1"/><path data-name="パス 91" d="m493.957 7.921-9.12-3.533-3.2 1.415 13.738 5.321Z" fill="#f1f1f1"/><path data-name="パス 92" d="m497.708 16.415-21.366-8.276-3.2 1.415 25.984 10.064Z" fill="#f1f1f1"/><path data-name="パス 93" d="m501.459 24.91-33.612-13.019-3.2 1.415 38.229 14.808Z" fill="#f1f1f1"/><path data-name="パス 94" d="m505.21 33.4-45.857-17.762-3.2 1.414 50.475 19.551Z" fill="#f1f1f1"/><path data-name="パス 95" d="m508.962 41.9-58.1-22.505-3.2 1.414 62.72 24.294Z" fill="#f1f1f1"/><path data-name="パス 96" d="m512.713 50.393-70.348-27.249-3.2 1.414 74.966 29.037Z" fill="#f1f1f1"/><path data-name="パス 97" d="M516.464 58.887 433.87 26.9l-3.2 1.414 87.211 33.78Z" fill="#f1f1f1"/><path data-name="パス 98" d="m520.215 67.382-94.839-36.735-3.2 1.414 99.457 38.523Z" fill="#f1f1f1"/></svg>