<svg xmlns="http://www.w3.org/2000/svg" width="192" height="30"><path data-name="長方形 145" fill="none" d="M0 0h192v30H0z"/><path data-name="多角形 1" d="M22.311 8.725 15.1 30 0 11.352Z" fill="#ffff29"/><path data-name="多角形 2" d="m108.967 0 7.418 21.212L93 15.814Z" fill="#ffff7c"/><g data-name="グループ 33" fill="#73cbd6"><path data-name="パス 115" d="m64.516 25.088 2.049-1.493.14-.9-3.086 2.25Z"/><path data-name="パス 116" d="m62.138 24.716 4.8-3.5.14-.9-5.836 4.255Z"/><path data-name="パス 117" d="m59.759 24.343 7.55-5.5.14-.9-8.586 6.259Z"/><path data-name="パス 118" d="m57.381 23.97 10.3-7.508.14-.9-11.337 8.264Z"/><path data-name="パス 119" d="m55.005 23.6 13.05-9.513.14-.9-14.088 10.269Z"/><path data-name="パス 120" d="m52.627 23.224 15.8-11.518.14-.9L51.728 23.08Z"/><path data-name="パス 121" d="M50.249 22.851 68.8 9.329l.14-.9-19.589 14.279Z"/><path data-name="パス 122" d="m47.871 22.479 21.3-15.528.14-.9-22.338 16.288Z"/></g><g data-name="グループ 34" fill="#73cbd6"><path data-name="パス 115-2" d="m159.08 12.535-2.384-.864-.822.385 3.591 1.3Z"/><path data-name="パス 116-2" d="m160.1 14.714-5.585-2.024-.822.385 6.791 2.461Z"/><path data-name="パス 117-2" d="m161.122 16.9-8.785-3.183-.822.385 9.991 3.62Z"/><path data-name="パス 118-2" d="m162.142 19.076-11.985-4.344-.822.385 13.192 4.781Z"/><path data-name="パス 119-2" d="m163.161 21.255-15.185-5.5-.821.385 16.392 5.941Z"/><path data-name="パス 120-2" d="M164.181 23.436 145.8 16.772l-.822.385 19.593 7.1Z"/><path data-name="パス 121-2" d="m165.2 25.616-21.585-7.824-.822.385 22.792 8.261Z"/><path data-name="パス 122-2" d="m166.222 27.8-24.786-8.983-.822.385 26 9.417Z"/></g></svg>