<svg xmlns="http://www.w3.org/2000/svg" width="80" height="80"><path data-name="パス 71" d="M80 40c0 3.375-4.981 6.05-5.813 9.163-.861 3.22 2.09 8.022.458 10.842-1.655 2.86-7.3 2.7-9.625 5.016s-2.156 7.97-5.016 9.625c-2.82 1.632-7.622-1.319-10.842-.459C46.05 75.019 43.374 80 40 80s-6.05-4.981-9.163-5.813c-3.22-.861-8.022 2.09-10.842.459-2.86-1.655-2.695-7.3-5.016-9.625s-7.97-2.156-9.625-5.016c-1.632-2.82 1.319-7.622.458-10.842C4.981 46.05 0 43.375 0 40s4.981-6.05 5.813-9.163c.861-3.22-2.09-8.022-.458-10.842 1.655-2.86 7.3-2.695 9.625-5.016s2.156-7.97 5.016-9.625c2.82-1.632 7.622 1.319 10.842.458C33.95 4.98 36.626-.001 40-.001s6.05 4.981 9.163 5.813c3.22.861 8.022-2.09 10.842-.458 2.86 1.655 2.695 7.3 5.016 9.625s7.97 2.156 9.625 5.016c1.632 2.82-1.319 7.622-.458 10.842C75.019 33.95 80 36.625 80 40Z"/></svg>